<mxfile host="Electron" modified="2024-10-04T14:18:39.224Z" agent="Mozilla/5.0 (Windows NT 10.0; Win64; x64) AppleWebKit/537.36 (KHTML, like Gecko) draw.io/22.0.0 Chrome/114.0.5735.289 Electron/25.8.3 Safari/537.36" etag="SeavRhKK3IW4wavsFEpP" version="22.0.0" type="device">
  <diagram name="Page-1" id="yLtt-x3ORwjLpISUDA5t">
    <mxGraphModel dx="1181" dy="644" grid="1" gridSize="10" guides="1" tooltips="1" connect="1" arrows="1" fold="1" page="1" pageScale="1" pageWidth="827" pageHeight="1169" math="0" shadow="0">
      <root>
        <mxCell id="0" />
        <mxCell id="1" parent="0" />
        <mxCell id="gOopB-zAnKTsu8Dakp9p-15" value="" style="rounded=0;whiteSpace=wrap;html=1;" vertex="1" parent="1">
          <mxGeometry x="304" y="430" width="220" height="20" as="geometry" />
        </mxCell>
        <mxCell id="gOopB-zAnKTsu8Dakp9p-2" value="" style="rounded=0;whiteSpace=wrap;html=1;" vertex="1" parent="1">
          <mxGeometry x="260" y="30" width="450" height="600" as="geometry" />
        </mxCell>
        <mxCell id="gOopB-zAnKTsu8Dakp9p-3" value="&lt;font style=&quot;font-size: 24px;&quot;&gt;Création du formulaire d&#39;inscription&lt;/font&gt;" style="text;html=1;strokeColor=none;fillColor=none;align=center;verticalAlign=middle;whiteSpace=wrap;rounded=0;" vertex="1" parent="1">
          <mxGeometry x="340" y="60" width="290" height="50" as="geometry" />
        </mxCell>
        <mxCell id="gOopB-zAnKTsu8Dakp9p-4" value="" style="rounded=0;whiteSpace=wrap;html=1;" vertex="1" parent="1">
          <mxGeometry x="285" y="150" width="220" height="20" as="geometry" />
        </mxCell>
        <mxCell id="gOopB-zAnKTsu8Dakp9p-5" value="" style="rounded=0;whiteSpace=wrap;html=1;" vertex="1" parent="1">
          <mxGeometry x="285" y="190" width="220" height="20" as="geometry" />
        </mxCell>
        <mxCell id="gOopB-zAnKTsu8Dakp9p-6" value="" style="rounded=0;whiteSpace=wrap;html=1;" vertex="1" parent="1">
          <mxGeometry x="285" y="230" width="220" height="20" as="geometry" />
        </mxCell>
        <mxCell id="gOopB-zAnKTsu8Dakp9p-7" value="" style="rounded=0;whiteSpace=wrap;html=1;" vertex="1" parent="1">
          <mxGeometry x="285" y="270" width="220" height="20" as="geometry" />
        </mxCell>
        <mxCell id="gOopB-zAnKTsu8Dakp9p-8" value="" style="rounded=0;whiteSpace=wrap;html=1;" vertex="1" parent="1">
          <mxGeometry x="285" y="310" width="220" height="20" as="geometry" />
        </mxCell>
        <mxCell id="gOopB-zAnKTsu8Dakp9p-9" value="Numéro du club" style="text;html=1;strokeColor=none;fillColor=none;align=center;verticalAlign=middle;whiteSpace=wrap;rounded=0;" vertex="1" parent="1">
          <mxGeometry x="290" y="150" width="210" height="20" as="geometry" />
        </mxCell>
        <mxCell id="gOopB-zAnKTsu8Dakp9p-10" value="Licence organisateur" style="text;html=1;strokeColor=none;fillColor=none;align=center;verticalAlign=middle;whiteSpace=wrap;rounded=0;" vertex="1" parent="1">
          <mxGeometry x="295" y="190" width="210" height="20" as="geometry" />
        </mxCell>
        <mxCell id="gOopB-zAnKTsu8Dakp9p-11" value="Image du logo" style="text;html=1;strokeColor=none;fillColor=none;align=center;verticalAlign=middle;whiteSpace=wrap;rounded=0;" vertex="1" parent="1">
          <mxGeometry x="290" y="230" width="210" height="20" as="geometry" />
        </mxCell>
        <mxCell id="gOopB-zAnKTsu8Dakp9p-12" value="Règlement du tournoi (fichier)" style="text;html=1;strokeColor=none;fillColor=none;align=center;verticalAlign=middle;whiteSpace=wrap;rounded=0;" vertex="1" parent="1">
          <mxGeometry x="290" y="270" width="210" height="20" as="geometry" />
        </mxCell>
        <mxCell id="gOopB-zAnKTsu8Dakp9p-16" value="" style="rounded=0;whiteSpace=wrap;html=1;" vertex="1" parent="1">
          <mxGeometry x="285" y="480" width="220" height="20" as="geometry" />
        </mxCell>
        <mxCell id="gOopB-zAnKTsu8Dakp9p-18" value="" style="rounded=0;whiteSpace=wrap;html=1;" vertex="1" parent="1">
          <mxGeometry x="285" y="350" width="220" height="20" as="geometry" />
        </mxCell>
        <mxCell id="gOopB-zAnKTsu8Dakp9p-14" value="Nombre de série jour 1" style="text;html=1;strokeColor=none;fillColor=none;align=center;verticalAlign=middle;whiteSpace=wrap;rounded=0;" vertex="1" parent="1">
          <mxGeometry x="290" y="350" width="210" height="20" as="geometry" />
        </mxCell>
        <mxCell id="gOopB-zAnKTsu8Dakp9p-19" value="Tournoi sur combien de jours" style="text;html=1;strokeColor=none;fillColor=none;align=center;verticalAlign=middle;whiteSpace=wrap;rounded=0;" vertex="1" parent="1">
          <mxGeometry x="290" y="310" width="210" height="20" as="geometry" />
        </mxCell>
        <mxCell id="gOopB-zAnKTsu8Dakp9p-20" value="Nombre de série jour 2" style="text;html=1;strokeColor=none;fillColor=none;align=center;verticalAlign=middle;whiteSpace=wrap;rounded=0;" vertex="1" parent="1">
          <mxGeometry x="290" y="480" width="210" height="20" as="geometry" />
        </mxCell>
        <mxCell id="gOopB-zAnKTsu8Dakp9p-21" value="&lt;font style=&quot;font-size: 18px;&quot;&gt;ENVOYER&lt;/font&gt;" style="rounded=1;whiteSpace=wrap;html=1;" vertex="1" parent="1">
          <mxGeometry x="550" y="210" width="130" height="40" as="geometry" />
        </mxCell>
        <mxCell id="gOopB-zAnKTsu8Dakp9p-22" value="En fonction du nombre donné" style="swimlane;fontStyle=0;childLayout=stackLayout;horizontal=1;startSize=30;horizontalStack=0;resizeParent=1;resizeParentMax=0;resizeLast=0;collapsible=1;marginBottom=0;whiteSpace=wrap;html=1;" vertex="1" parent="1">
          <mxGeometry x="510" y="350" width="190" height="120" as="geometry" />
        </mxCell>
        <mxCell id="gOopB-zAnKTsu8Dakp9p-34" value="" style="endArrow=classic;html=1;rounded=0;" edge="1" parent="gOopB-zAnKTsu8Dakp9p-22">
          <mxGeometry width="50" height="50" relative="1" as="geometry">
            <mxPoint x="10" y="44.5" as="sourcePoint" />
            <mxPoint x="-40" y="44.5" as="targetPoint" />
          </mxGeometry>
        </mxCell>
        <mxCell id="gOopB-zAnKTsu8Dakp9p-23" value="Nom série 1" style="text;strokeColor=none;fillColor=none;align=left;verticalAlign=middle;spacingLeft=4;spacingRight=4;overflow=hidden;points=[[0,0.5],[1,0.5]];portConstraint=eastwest;rotatable=0;whiteSpace=wrap;html=1;" vertex="1" parent="gOopB-zAnKTsu8Dakp9p-22">
          <mxGeometry y="30" width="190" height="30" as="geometry" />
        </mxCell>
        <mxCell id="gOopB-zAnKTsu8Dakp9p-27" value="Nom série 2" style="text;strokeColor=none;fillColor=none;align=left;verticalAlign=middle;spacingLeft=4;spacingRight=4;overflow=hidden;points=[[0,0.5],[1,0.5]];portConstraint=eastwest;rotatable=0;whiteSpace=wrap;html=1;" vertex="1" parent="gOopB-zAnKTsu8Dakp9p-22">
          <mxGeometry y="60" width="190" height="30" as="geometry" />
        </mxCell>
        <mxCell id="gOopB-zAnKTsu8Dakp9p-28" value="Nom série 3" style="text;strokeColor=none;fillColor=none;align=left;verticalAlign=middle;spacingLeft=4;spacingRight=4;overflow=hidden;points=[[0,0.5],[1,0.5]];portConstraint=eastwest;rotatable=0;whiteSpace=wrap;html=1;" vertex="1" parent="gOopB-zAnKTsu8Dakp9p-22">
          <mxGeometry y="90" width="190" height="30" as="geometry" />
        </mxCell>
        <mxCell id="gOopB-zAnKTsu8Dakp9p-30" value="En fonction du nombre donné" style="swimlane;fontStyle=0;childLayout=stackLayout;horizontal=1;startSize=30;horizontalStack=0;resizeParent=1;resizeParentMax=0;resizeLast=0;collapsible=1;marginBottom=0;whiteSpace=wrap;html=1;" vertex="1" parent="1">
          <mxGeometry x="510" y="480" width="190" height="120" as="geometry" />
        </mxCell>
        <mxCell id="gOopB-zAnKTsu8Dakp9p-31" value="Nom série 1" style="text;strokeColor=none;fillColor=none;align=left;verticalAlign=middle;spacingLeft=4;spacingRight=4;overflow=hidden;points=[[0,0.5],[1,0.5]];portConstraint=eastwest;rotatable=0;whiteSpace=wrap;html=1;" vertex="1" parent="gOopB-zAnKTsu8Dakp9p-30">
          <mxGeometry y="30" width="190" height="30" as="geometry" />
        </mxCell>
        <mxCell id="gOopB-zAnKTsu8Dakp9p-32" value="Nom série 2" style="text;strokeColor=none;fillColor=none;align=left;verticalAlign=middle;spacingLeft=4;spacingRight=4;overflow=hidden;points=[[0,0.5],[1,0.5]];portConstraint=eastwest;rotatable=0;whiteSpace=wrap;html=1;" vertex="1" parent="gOopB-zAnKTsu8Dakp9p-30">
          <mxGeometry y="60" width="190" height="30" as="geometry" />
        </mxCell>
        <mxCell id="gOopB-zAnKTsu8Dakp9p-33" value="Nom série 3" style="text;strokeColor=none;fillColor=none;align=left;verticalAlign=middle;spacingLeft=4;spacingRight=4;overflow=hidden;points=[[0,0.5],[1,0.5]];portConstraint=eastwest;rotatable=0;whiteSpace=wrap;html=1;" vertex="1" parent="gOopB-zAnKTsu8Dakp9p-30">
          <mxGeometry y="90" width="190" height="30" as="geometry" />
        </mxCell>
        <mxCell id="gOopB-zAnKTsu8Dakp9p-35" value="" style="endArrow=classic;html=1;rounded=0;" edge="1" parent="1">
          <mxGeometry width="50" height="50" relative="1" as="geometry">
            <mxPoint x="520" y="430" as="sourcePoint" />
            <mxPoint x="470" y="430" as="targetPoint" />
          </mxGeometry>
        </mxCell>
        <mxCell id="gOopB-zAnKTsu8Dakp9p-36" value="" style="endArrow=classic;html=1;rounded=0;" edge="1" parent="1">
          <mxGeometry width="50" height="50" relative="1" as="geometry">
            <mxPoint x="520" y="460" as="sourcePoint" />
            <mxPoint x="470" y="460" as="targetPoint" />
          </mxGeometry>
        </mxCell>
        <mxCell id="gOopB-zAnKTsu8Dakp9p-37" value="" style="endArrow=classic;html=1;rounded=0;" edge="1" parent="1">
          <mxGeometry width="50" height="50" relative="1" as="geometry">
            <mxPoint x="520" y="590" as="sourcePoint" />
            <mxPoint x="470" y="590" as="targetPoint" />
          </mxGeometry>
        </mxCell>
        <mxCell id="gOopB-zAnKTsu8Dakp9p-38" value="" style="endArrow=classic;html=1;rounded=0;" edge="1" parent="1">
          <mxGeometry width="50" height="50" relative="1" as="geometry">
            <mxPoint x="520" y="560" as="sourcePoint" />
            <mxPoint x="470" y="560" as="targetPoint" />
          </mxGeometry>
        </mxCell>
        <mxCell id="gOopB-zAnKTsu8Dakp9p-39" value="" style="endArrow=classic;html=1;rounded=0;" edge="1" parent="1">
          <mxGeometry width="50" height="50" relative="1" as="geometry">
            <mxPoint x="520" y="530" as="sourcePoint" />
            <mxPoint x="470" y="530" as="targetPoint" />
          </mxGeometry>
        </mxCell>
        <mxCell id="gOopB-zAnKTsu8Dakp9p-42" value="" style="rounded=0;whiteSpace=wrap;html=1;" vertex="1" parent="1">
          <mxGeometry x="304" y="585" width="160" height="20" as="geometry" />
        </mxCell>
        <mxCell id="gOopB-zAnKTsu8Dakp9p-43" value="" style="rounded=0;whiteSpace=wrap;html=1;" vertex="1" parent="1">
          <mxGeometry x="304" y="550" width="160" height="20" as="geometry" />
        </mxCell>
        <mxCell id="gOopB-zAnKTsu8Dakp9p-44" value="" style="rounded=0;whiteSpace=wrap;html=1;" vertex="1" parent="1">
          <mxGeometry x="304" y="520" width="160" height="20" as="geometry" />
        </mxCell>
        <mxCell id="gOopB-zAnKTsu8Dakp9p-45" value="" style="rounded=0;whiteSpace=wrap;html=1;" vertex="1" parent="1">
          <mxGeometry x="304" y="450" width="160" height="20" as="geometry" />
        </mxCell>
        <mxCell id="gOopB-zAnKTsu8Dakp9p-46" value="" style="rounded=0;whiteSpace=wrap;html=1;" vertex="1" parent="1">
          <mxGeometry x="304" y="420" width="160" height="20" as="geometry" />
        </mxCell>
        <mxCell id="gOopB-zAnKTsu8Dakp9p-47" value="" style="rounded=0;whiteSpace=wrap;html=1;" vertex="1" parent="1">
          <mxGeometry x="304" y="390" width="160" height="20" as="geometry" />
        </mxCell>
        <mxCell id="gOopB-zAnKTsu8Dakp9p-54" value="Option(sexe, points, etc)" style="text;html=1;strokeColor=none;fillColor=none;align=center;verticalAlign=middle;whiteSpace=wrap;rounded=0;" vertex="1" parent="1">
          <mxGeometry x="294" y="450" width="180" height="20" as="geometry" />
        </mxCell>
        <mxCell id="gOopB-zAnKTsu8Dakp9p-55" value="Option(sexe, points, etc)" style="text;html=1;strokeColor=none;fillColor=none;align=center;verticalAlign=middle;whiteSpace=wrap;rounded=0;" vertex="1" parent="1">
          <mxGeometry x="294" y="390" width="180" height="20" as="geometry" />
        </mxCell>
        <mxCell id="gOopB-zAnKTsu8Dakp9p-56" value="Option(sexe, points, etc)" style="text;html=1;strokeColor=none;fillColor=none;align=center;verticalAlign=middle;whiteSpace=wrap;rounded=0;" vertex="1" parent="1">
          <mxGeometry x="294" y="420" width="180" height="20" as="geometry" />
        </mxCell>
        <mxCell id="gOopB-zAnKTsu8Dakp9p-57" value="Option(sexe, points, etc)" style="text;html=1;strokeColor=none;fillColor=none;align=center;verticalAlign=middle;whiteSpace=wrap;rounded=0;" vertex="1" parent="1">
          <mxGeometry x="295" y="520" width="180" height="20" as="geometry" />
        </mxCell>
        <mxCell id="gOopB-zAnKTsu8Dakp9p-58" value="Option(sexe, points, etc)" style="text;html=1;strokeColor=none;fillColor=none;align=center;verticalAlign=middle;whiteSpace=wrap;rounded=0;" vertex="1" parent="1">
          <mxGeometry x="295" y="550" width="180" height="20" as="geometry" />
        </mxCell>
        <mxCell id="gOopB-zAnKTsu8Dakp9p-59" value="Option(sexe, points, etc)" style="text;html=1;strokeColor=none;fillColor=none;align=center;verticalAlign=middle;whiteSpace=wrap;rounded=0;" vertex="1" parent="1">
          <mxGeometry x="290" y="585" width="180" height="20" as="geometry" />
        </mxCell>
      </root>
    </mxGraphModel>
  </diagram>
</mxfile>
